<?xml version="1.0" encoding="UTF-8"?>
<!DOCTYPE svg PUBLIC "-//W3C//DTD SVG 1.1//EN" "http://www.w3.org/Graphics/SVG/1.1/DTD/svg11.dtd">
<!-- Creator: CorelDRAW X8 -->
<svg xmlns="http://www.w3.org/2000/svg" xml:space="preserve" width="0.0885827in" height="0.0826772in" version="1.1" style="shape-rendering:geometricPrecision; text-rendering:geometricPrecision; image-rendering:optimizeQuality; fill-rule:evenodd; clip-rule:evenodd"
viewBox="0 0 89 83"
 xmlns:xlink="http://www.w3.org/1999/xlink">
 <defs>
  <style type="text/css">
   <![CDATA[
    .str1 {stroke:#000066;stroke-width:10.4134}
    .str0 {stroke:#000066;stroke-width:1.38976}
    .fil2 {fill:none}
    .fil1 {fill:#000066}
    .fil0 {fill:#000066;fill-rule:nonzero}
   ]]>
  </style>
 </defs>
 <g id="Layer_x0020_1">
  <metadata id="CorelCorpID_0Corel-Layer"/>
  <g id="_2426782802640">
   <g id="_2366381701696">
    <polygon class="fil0" points="20,37 56,36 56,46 20,47 "/>
    <polygon class="fil1 str0" points="37,66 56,41 37,17 87,41 "/>
    <polygon class="fil0" points="20,44 21,45 20,47 "/>
   </g>
   <g>
    <path class="fil0" d="M1 1l16 0c3,0 5,1 7,2 2,2 3,5 3,8l0 61c0,3 -1,5 -3,7 -2,2 -4,3 -7,3l-16 0 0 -10 16 0 0 -61 -16 0 0 -10z"/>
    <line class="fil2 str1" x1="1" y1="30" x2="20" y2= "30" />
    <line class="fil2 str1" x1="1" y1="53" x2="20" y2= "53" />
   </g>
  </g>
 </g>
</svg>
