<?xml version="1.0" encoding="UTF-8"?>
<!DOCTYPE svg PUBLIC "-//W3C//DTD SVG 1.1//EN" "http://www.w3.org/Graphics/SVG/1.1/DTD/svg11.dtd">
<!-- Creator: CorelDRAW X8 -->
<svg xmlns="http://www.w3.org/2000/svg" xml:space="preserve" width="0.05in" height="0.05in" version="1.1" style="shape-rendering:geometricPrecision; text-rendering:geometricPrecision; image-rendering:optimizeQuality; fill-rule:evenodd; clip-rule:evenodd"
viewBox="0 0 50 50"
 xmlns:xlink="http://www.w3.org/1999/xlink">
 <defs>
  <style type="text/css">
   <![CDATA[
    .fil1 {fill:#000066}
    .fil0 {fill:red;fill-rule:nonzero}
   ]]>
  </style>
 </defs>
 <g id="Layer_x0020_1">
  <metadata id="CorelCorpID_0Corel-Layer"/>
  <g id="_1302814659936">
   <path class="fil0" d="M39 44l3 0 0 -7 7 0 0 -4 -7 0 0 -6 -3 0 0 6 -7 0 0 4 7 0 0 7zm2 0m1 -3m4 -4m3 -1m-3 -3m-4 -3m-1 -3m-2 3m-3 3m-4 3m4 1m3 4z"/>
   <polygon class="fil1" points="15,20 8,15 1,20 8,6 "/>
   <polygon class="fil1" points="10,44 10,12 6,12 6,44 "/>
   <polygon class="fil1" points="31,20 24,15 17,20 24,6 "/>
   <polygon class="fil1" points="26,44 26,12 22,12 22,44 "/>
   <polygon class="fil1" points="48,20 40,15 34,20 40,6 "/>
   <polygon class="fil1" points="42,23 42,12 39,12 39,23 "/>
  </g>
 </g>
</svg>
