<?xml version="1.0" encoding="UTF-8"?>
<!DOCTYPE svg PUBLIC "-//W3C//DTD SVG 1.1//EN" "http://www.w3.org/Graphics/SVG/1.1/DTD/svg11.dtd">
<!-- Creator: CorelDRAW X8 -->
<svg xmlns="http://www.w3.org/2000/svg" xml:space="preserve" width="0.0787402in" height="0.0787402in" version="1.1" style="shape-rendering:geometricPrecision; text-rendering:geometricPrecision; image-rendering:optimizeQuality; fill-rule:evenodd; clip-rule:evenodd"
viewBox="0 0 79 79"
 xmlns:xlink="http://www.w3.org/1999/xlink">
 <defs>
  <style type="text/css">
   <![CDATA[
    .str1 {stroke:#000066;stroke-width:1.38583}
    .str0 {stroke:#000066;stroke-width:2.77559}
    .fil1 {fill:none}
    .fil0 {fill:#332C2B}
   ]]>
  </style>
 </defs>
 <g id="Layer_x0020_1">
  <metadata id="CorelCorpID_0Corel-Layer"/>
  <g id="_2331093447056">
   <g>
    <g>
    </g>
    <g>
     <polygon class="fil0" points="5,7 28,7 28,23 5,23 "/>
     <g>
     </g>
    </g>
    <g>
     <polygon class="fil0" points="28,7 51,7 51,23 28,23 "/>
     <g>
     </g>
    </g>
    <g>
     <polygon class="fil0" points="51,7 74,7 74,23 51,23 "/>
     <g>
     </g>
    </g>
    <g>
     <g>
     </g>
     <g>
     </g>
    </g>
    <g>
     <g>
     </g>
     <g>
     </g>
    </g>
    <g>
     <g>
     </g>
     <g>
     </g>
    </g>
    <g>
     <g>
     </g>
     <g>
     </g>
    </g>
    <g>
     <g>
     </g>
     <g>
     </g>
    </g>
    <g>
     <g>
     </g>
     <g>
     </g>
    </g>
    <g>
     <g>
     </g>
     <g>
     </g>
    </g>
    <g>
     <g>
     </g>
     <g>
     </g>
    </g>
    <g>
     <g>
     </g>
     <g>
     </g>
    </g>
    <polyline class="fil1 str0" points="5,72 5,55 5,39 5,23 5,7 "/>
    <polyline id="_1" class="fil1 str0" points="28,72 28,55 28,39 28,23 "/>
    <line id="_2" class="fil1 str1" x1="28" y1="23" x2="28" y2= "7" />
    <polyline id="_3" class="fil1 str0" points="51,72 51,55 51,39 51,23 "/>
    <line id="_4" class="fil1 str1" x1="51" y1="23" x2="51" y2= "7" />
    <polyline id="_5" class="fil1 str0" points="74,72 74,55 74,39 74,23 74,7 "/>
    <polyline id="_6" class="fil1 str0" points="5,72 28,72 51,72 74,72 "/>
    <polyline id="_7" class="fil1 str0" points="5,55 28,55 51,55 74,55 "/>
    <polyline id="_8" class="fil1 str0" points="5,39 28,39 51,39 74,39 "/>
    <polyline id="_9" class="fil1 str0" points="5,23 28,23 51,23 74,23 "/>
    <polyline id="_10" class="fil1 str0" points="5,7 28,7 51,7 74,7 "/>
   </g>
  </g>
 </g>
</svg>
